PathFileType	4	(X/Y/Z)	65_2_16_p0_0-232.trc
DataRate	CameraRate	NumFrames	NumMarkers	Units	OrigDataRate	OrigDataStartFrame	OrigNumFrames
60.0	60.0	5	27	m	60.0	145	233
Frame#	Time	RHip			RKnee			RAnkle			RBigToe			RSmallToe			RHeel			LHip			LKnee			LAnkle			LBigToe			LSmallToe			LHeel			Neck			Head			Nose			RShoulder			RElbow			RWrist			RThumb			RIndex			RPinky			LShoulder			LElbow			LWrist			LThumb			LIndex			LPinky			
		X1	Y1	Z1	X2	Y2	Z2	X3	Y3	Z3	X4	Y4	Z4	X5	Y5	Z5	X6	Y6	Z6	X7	Y7	Z7	X8	Y8	Z8	X9	Y9	Z9	X10	Y10	Z10	X11	Y11	Z11	X12	Y12	Z12	X13	Y13	Z13	X14	Y14	Z14	X15	Y15	Z15	X16	Y16	Z16	X17	Y17	Z17	X18	Y18	Z18	X19	Y19	Z19	X20	Y20	Z20	X21	Y21	Z21	X22	Y22	Z22	X23	Y23	Z23	X24	Y24	Z24	X25	Y25	Z25	X26	Y26	Z26	X27	Y27	Z27	
145	2.4166666666666665	0.36936115604056136	0.6604316722594015	0.34406483381085834	0.3443342399577492	0.8318776209431595	0.7185283167059658	0.285426993501193	0.9926328861902746	1.1440590618417983	0.2843531865123777	0.9015616418937372	1.2261004267755014	0.32751000814268216	0.9356708297648515	1.2319845317779115	0.26561843561428444	1.087405614465552	1.1919227379444295	0.15181708101031677	0.6833438671905997	0.34039731719841254	0.13328197661324692	0.867830789469998	0.7136653243217936	0.10564591970320072	1.0354480844730685	1.1472467095430192	0.1086933258900333	0.8491202767870896	1.1844072637095524	0.06159000974530745	0.9079391982032898	1.176423204328595	0.11175410688405717	1.0823192645410717	1.1832226477676155	0.29763473898368115	0.5116306561621595	-0.21117433199357674	0.32523719802717005	0.3792374501427457	-0.42538611310714414	0.32288654584130455	0.3670969530905345	-0.286792605543027	0.4696772204112835	0.549126698308941	-0.12346329816071902	0.48280852833139376	0.583143954629766	0.14504160079700187	0.32787756150502684	0.4828529697470577	0.32933034689822666	0.2459563948530435	0.4702762381723499	0.39884220605775395	0.24918027173119348	0.4905527697176583	0.41299987489894746	0.262993329512255	0.5493628441846893	0.4258471716492952	0.15364541446421698	0.5461017569274937	-0.1537830160067402	0.11412491133284418	0.5458714840515202	0.10078731428507111	0.19861328496842282	0.5021860365807789	0.3271794988575998	0.2703139694588476	0.48318761908176894	0.3770359181062068	0.2676093046096798	0.504681975315329	0.4137588947234406	0.24903142486211663	0.5005283378293874	0.4235927284478347
146	2.433333333333333	0.36938202334425524	0.6605806372362114	0.34408391510966524	0.34422264697854554	0.831381177142417	0.7224622003926281	0.28543906636611516	0.9925922571291247	1.144053213175497	0.2841359160218078	0.9000331717444802	1.2253636354497863	0.326799139620255	0.9318971621730822	1.2306226581511577	0.2656617310301087	1.0872668013899482	1.1919063786616593	0.1517951777155398	0.6809610499418165	0.33650326459998053	0.1321412571763067	0.8691284523917215	0.7178567461019363	0.10563695995474238	1.0354755197742396	1.1472207749808667	0.11378011096460647	0.8320375836399998	1.1797772614100803	0.06163833415637124	0.9078761218406796	1.1763962722980654	0.11182148579098403	1.0823860537029402	1.1833036727029458	0.2977836031309769	0.5118893833619892	-0.21120041243220455	0.3255753151980854	0.37894847290123823	-0.4291622950195474	0.3230052019584882	0.36704804461260193	-0.2868845647488607	0.46981868952096	0.5489391858741504	-0.12716216749976494	0.48286493575965267	0.5831484679275621	0.14506203447681815	0.327150548868348	0.4841881186943989	0.3324048230567511	0.2493283259782908	0.4849450511459389	0.40736799152794034	0.24923279320250707	0.49076897472438563	0.4131549795717565	0.2629882979729163	0.5493855508760052	0.42587490565146646	0.148949013522316	0.5592324044105712	-0.15591214088983477	0.11410169534488877	0.5457904612877368	0.10071430015922496	0.19857834306037456	0.5022341895223968	0.32719095123315123	0.2702914927277492	0.48318651797655815	0.3770344110640725	0.2676732049630585	0.5070092238196834	0.4172035630741255	0.24904294964227675	0.50094901237214	0.4237349229818839
147	2.45	0.3702744601059296	0.6591180828748966	0.34018914368513387	0.34418956993074457	0.8313662919575809	0.7223876480709202	0.2854863582550374	0.9925471246249168	1.144050138882458	0.28405298390012235	0.899282904020079	1.2250207496484713	0.33028011035806587	0.9115282556198326	1.2245619156374372	0.265776252121574	1.087247158308088	1.1919804663158293	0.15173670709585238	0.6810055579456427	0.33648204533038134	0.13334883035886405	0.867827311109723	0.7136983864466918	0.10563857862099385	1.035492640999296	1.147247932524058	0.11367058787891117	0.83074089008092	1.1796344155318041	0.06158659306603763	0.9064245814504994	1.1760982403153684	0.11327106513870815	1.080497370075113	1.1787998789489915	0.29787137968490857	0.5121041548498926	-0.21119700320170076	0.33354424600159355	0.3667506560645945	-0.42860989797022886	0.32313378210386534	0.36720407781555037	-0.2868480448846651	0.46969935317310574	0.5489669992709908	-0.12354540578015168	0.48288470793852123	0.5833668831952808	0.14509086663136062	0.3270765312686109	0.4840045169782376	0.3324356317321132	0.24596905594307006	0.4699938496528999	0.401914653014396	0.24906255610313113	0.49054859993711025	0.41307944656266127	0.2629616784920075	0.5492623216758167	0.4259803131439965	0.153646813917951	0.5461004351471076	-0.15380354196903984	0.11404072489122549	0.5456470341971128	0.10083046838417428	0.19856963530458588	0.5021440162568263	0.3272075470822608	0.2702499478133669	0.48284441228435837	0.38046135184494684	0.2675783517843993	0.5045301669796074	0.4137339864274115	0.24874010773178767	0.5005525061137945	0.42369941845408476
148	2.466666666666667	0.37030065507631016	0.6588938430717858	0.34013948291690366	0.3441746453032894	0.8312887632218348	0.7223994206505615	0.2853953699663335	0.9922778609213749	1.143973610910301	0.2869009425426019	0.9141915836286921	1.2307329578195665	0.3319647645734626	0.9191192487348206	1.2274276984252526	0.266092544606146	1.089053512463496	1.1925829009069575	0.15278765852155377	0.6795981600539263	0.33261892132138526	0.13334114752426363	0.8677913107132883	0.7136290727579698	0.10560590216160139	1.0354860005699758	1.147370654116514	0.1140015390241149	0.832664800484733	1.179887000098045	0.061972041407989585	0.9087873726284004	1.1765368687187097	0.11203967190383644	1.0839284149541881	1.1833372326871863	0.2977901770550173	0.5121038361339155	-0.21131613824301584	0.33361445911552434	0.3667688115930224	-0.42850163772783095	0.32313357599697684	0.3669919952527235	-0.2869258515097705	0.47295370086874705	0.5355761389975648	-0.12155295773261238	0.48362726779789245	0.5821343081761844	0.14144451749148068	0.32721984971943047	0.4841228213883463	0.3324572077527321	0.2496480216822368	0.485002902711183	0.4076361222851062	0.24947330057113618	0.49040176599941027	0.41313713231142857	0.2629775430152712	0.5491958593882874	0.4258846432490521	0.15371763648696637	0.5459909887486067	-0.15381081497904614	0.11401742565275227	0.5457268877559471	0.10084261239633155	0.1986096584693837	0.5022298381941799	0.3272353636339114	0.26723243132804975	0.4710716151999902	0.3763233614573578	0.2715678919017321	0.4939303331025439	0.4167731336148059	0.24888554027361914	0.5011780748203463	0.4239435905703902
149	2.4833333333333334	0.3694014887120723	0.6604722744181218	0.344023148820086	0.3442223409496378	0.8313195453411534	0.7224736789180806	0.2854034349303226	0.9919835985823221	1.1438792922068126	0.2872669203463501	0.9166076070148543	1.2319759687250833	0.33449000127839185	0.9238112810270392	1.2248982519231417	0.2663655439938622	1.0913817971195892	1.193276768850328	0.15184114350900477	0.6812281588427932	0.33645678544860474	0.13336310359756662	0.8678988051417951	0.7137292238111302	0.10723039881929754	1.0347801194772588	1.1391673644561668	0.11391066440286599	0.8327656879554959	1.179785003589741	0.061851249550887374	0.9090287561221073	1.1765671691222621	0.11364803437773023	1.082773334291578	1.1785234772735307	0.29788585708313536	0.5119500741504074	-0.2112981150491358	0.3336792511977842	0.3669729337102638	-0.4288011915197961	0.3232654498221382	0.3670042903999087	-0.28701337016992456	0.4729502977740354	0.5356214220241954	-0.12154507064368819	0.48293961825544063	0.583244572601173	0.1451393909051918	0.32721004389305114	0.4839757722427122	0.3324654315120122	0.2461861175564551	0.469927402453551	0.4020797827669065	0.24917863259335143	0.49025971741432006	0.4130667519013071	0.26297913599593675	0.5488710174806369	0.425893873949856	0.15374399674627973	0.5459734851274826	-0.15381854722725097	0.11400736169579342	0.545675137998957	0.10081571165726497	0.19860123936160737	0.5021152680695717	0.32721659420232313	0.2669689879730712	0.47068116084514755	0.3796544051020445	0.27144487711507365	0.4937127298455363	0.41662074564281576	0.24894234758936684	0.5011491157862317	0.423905546782438
